<svg width="32" height="32" viewBox="0 0 32 32" fill="none" xmlns="http://www.w3.org/2000/svg">
<path d="M18.6663 17.3334C17.5552 17.3334 16.6108 16.9445 15.833 16.1667C15.0552 15.389 14.6663 14.4445 14.6663 13.3334C14.6663 12.2223 15.0552 11.2778 15.833 10.5001C16.6108 9.72229 17.5552 9.3334 18.6663 9.3334C19.7775 9.3334 20.7219 9.72229 21.4997 10.5001C22.2775 11.2778 22.6663 12.2223 22.6663 13.3334C22.6663 14.4445 22.2775 15.389 21.4997 16.1667C20.7219 16.9445 19.7775 17.3334 18.6663 17.3334ZM9.33301 21.3334C8.59967 21.3334 7.9719 21.0723 7.44967 20.5501C6.92745 20.0279 6.66634 19.4001 6.66634 18.6667V8.00007C6.66634 7.26674 6.92745 6.63896 7.44967 6.11674C7.9719 5.59452 8.59967 5.3334 9.33301 5.3334H27.9997C28.733 5.3334 29.3608 5.59452 29.883 6.11674C30.4052 6.63896 30.6663 7.26674 30.6663 8.00007V18.6667C30.6663 19.4001 30.4052 20.0279 29.883 20.5501C29.3608 21.0723 28.733 21.3334 27.9997 21.3334H9.33301ZM11.9997 18.6667H25.333C25.333 17.9334 25.5941 17.3056 26.1163 16.7834C26.6386 16.2612 27.2663 16.0001 27.9997 16.0001V10.6667C27.2663 10.6667 26.6386 10.4056 26.1163 9.8834C25.5941 9.36118 25.333 8.7334 25.333 8.00007H11.9997C11.9997 8.7334 11.7386 9.36118 11.2163 9.8834C10.6941 10.4056 10.0663 10.6667 9.33301 10.6667V16.0001C10.0663 16.0001 10.6941 16.2612 11.2163 16.7834C11.7386 17.3056 11.9997 17.9334 11.9997 18.6667ZM26.6663 26.6667H3.99967C3.26634 26.6667 2.63856 26.4056 2.11634 25.8834C1.59412 25.3612 1.33301 24.7334 1.33301 24.0001V9.3334H3.99967V24.0001H26.6663V26.6667Z" fill="#002554"/>
</svg>
