<svg width="32" height="32" viewBox="0 0 32 32" fill="none" xmlns="http://www.w3.org/2000/svg">
<path d="M32 8.50018V10.1877C32 10.3602 31.8601 10.5002 31.6875 10.5002H0.3125C0.139938 10.5002 0 10.3602 0 10.1877V8.50018C0 6.56718 1.567 5.00018 3.5 5.00018H28.5C30.433 5.00018 32 6.56718 32 8.50018Z" fill="#465A64"/>
<path fill-rule="evenodd" clip-rule="evenodd" d="M0 23.5002V12.8127C0 12.6401 0.139938 12.5002 0.3125 12.5002H31.6875C31.8601 12.5002 32 12.6401 32 12.8127V23.5002C32 25.4332 30.433 27.0002 28.5 27.0002H3.5C1.567 27.0002 0 25.4332 0 23.5002ZM7 22.0002C7.55225 22.0002 8 21.5524 8 21.0002V20.0002C8 19.4479 7.55225 19.0002 7 19.0002H6C5.44775 19.0002 5 19.4479 5 20.0002V21.0002C5 21.5524 5.44775 22.0002 6 22.0002H7Z" fill="#465A64"/>
</svg>
