<svg width="33" height="32" viewBox="0 0 33 32" fill="none" xmlns="http://www.w3.org/2000/svg">
<path d="M17.8005 5.25334C19.1339 4.29334 20.6805 3.81334 22.4272 3.81334C23.3872 3.81334 24.4405 4.06667 25.5872 4.60001C26.7339 5.12001 27.6405 5.73334 28.3072 6.44001C29.6805 8.14667 30.2539 10.1333 30.0539 12.4C29.8405 14.6667 29.0939 16.44 27.8005 17.6933L17.6805 27.8133C17.4272 28.0667 17.1072 28.1867 16.7339 28.1867C16.3605 28.1867 16.0539 28.0667 15.8005 27.8133C15.5472 27.56 15.4272 27.2533 15.4272 26.88C15.4272 26.5067 15.5472 26.1867 15.8005 25.9333L21.9205 19.8133C22.2539 19.52 22.2539 19.2133 21.9205 18.88C21.5872 18.5467 21.2805 18.5467 20.9872 18.88L14.8672 25C14.6139 25.2533 14.3072 25.3733 13.9205 25.3733C13.5472 25.3733 13.2405 25.2533 12.9872 25C12.7339 24.7467 12.6139 24.44 12.6139 24.0667C12.6139 23.6933 12.7339 23.3733 12.9872 23.12L19.1072 17C19.4672 16.6667 19.4672 16.3333 19.1072 16C18.8005 15.6667 18.5072 15.6667 18.1739 16L12.0539 22.1867C11.8005 22.44 11.4672 22.56 11.1072 22.56C10.7339 22.56 10.4139 22.44 10.1339 22.1867C9.86719 21.9333 9.73385 21.6267 9.73385 21.2533C9.73385 20.88 9.88052 20.5467 10.1739 20.2533L16.3072 14.12C16.6405 13.7867 16.6405 13.48 16.3072 13.1867C15.9739 12.8933 15.6539 12.8933 15.3605 13.1867L9.17385 19.3333C8.88052 19.6 8.57385 19.7467 8.24052 19.7467C7.86719 19.7467 7.54719 19.6133 7.30719 19.3333C7.05385 19.0667 6.92052 18.7467 6.92052 18.3733C6.92052 18 7.05385 17.6933 7.30719 17.44C11.3872 13.3333 13.9072 10.8533 14.8672 9.93334L19.6139 14.6267C20.1339 15.12 20.7339 15.3733 21.4672 15.3733C22.4005 15.3733 23.1339 15 23.6805 14.2533C24.0539 13.7067 24.1872 13.1067 24.0805 12.44C23.9739 11.7733 23.6939 11.2133 23.2405 10.7467L17.8005 5.25334ZM20.5472 13.6933L14.8672 8.00001L5.42719 17.44C4.30719 16.3067 3.66719 14.5733 3.52052 12.2133C3.37385 9.86667 4.01385 7.82667 5.42719 6.12001C7.01385 4.54667 8.90719 3.74667 11.1072 3.74667C13.3205 3.74667 15.2005 4.54667 16.7339 6.12001L22.4272 11.8133C22.6805 12.0667 22.8005 12.3733 22.8005 12.7467C22.8005 13.12 22.6805 13.44 22.4272 13.6933C22.1739 13.9333 21.8672 14.0667 21.4672 14.0667C21.1072 14.0667 20.8005 13.9333 20.5472 13.6933Z" fill="#465A64"/>
</svg>
