<svg width="68" height="32" viewBox="0 0 68 32" fill="none" xmlns="http://www.w3.org/2000/svg">
<path d="M11.6355 10.5681H10.0003C9.8798 10.5682 9.76428 10.6151 9.67909 10.6986C9.59389 10.7821 9.54599 10.8953 9.5459 11.0134V20.989C9.54594 21.1071 9.59383 21.2203 9.67903 21.3039C9.76423 21.3874 9.87977 21.4343 10.0003 21.4344H11.6355C11.756 21.4343 11.8715 21.3873 11.9567 21.3038C12.0418 21.2203 12.0897 21.107 12.0897 20.989V11.0134C12.0896 10.8953 12.0418 10.7821 11.9566 10.6986C11.8714 10.6152 11.756 10.5682 11.6355 10.5681Z" fill="#465A64"/>
<path d="M7.68361 18.9404H3.27723V11.0134C3.27714 10.8953 3.22926 10.7821 3.1441 10.6986C3.05894 10.6152 2.94347 10.5682 2.82304 10.5681H1.18759C1.06716 10.5682 0.951684 10.6152 0.866527 10.6986C0.78137 10.7821 0.733489 10.8953 0.733398 11.0134V20.989C0.733444 21.107 0.781305 21.2203 0.866467 21.3038C0.951629 21.3873 1.06713 21.4343 1.18759 21.4344H7.68361C7.80407 21.4343 7.91957 21.3873 8.00473 21.3038C8.08989 21.2203 8.13775 21.107 8.1378 20.989V19.3856C8.13771 19.2676 8.08983 19.1544 8.00467 19.0709C7.91951 18.9874 7.80404 18.9405 7.68361 18.9404Z" fill="black"/>
<path d="M31.9863 13.0621C32.1068 13.062 32.2222 13.015 32.3074 12.9316C32.3926 12.8481 32.4404 12.7349 32.4405 12.6168V11.0135C32.4404 10.8954 32.3926 10.7822 32.3074 10.6987C32.2222 10.6153 32.1068 10.5683 31.9863 10.5682H25.4903C25.3699 10.5683 25.2544 10.6153 25.1693 10.6987C25.0841 10.7822 25.0362 10.8954 25.0361 11.0135V20.989C25.0362 21.1071 25.084 21.2204 25.1692 21.3039C25.2544 21.3874 25.3699 21.4344 25.4903 21.4345H31.9863C32.1068 21.4344 32.2223 21.3874 32.3075 21.3039C32.3926 21.2204 32.4405 21.1071 32.4405 20.989V19.3857C32.4404 19.2677 32.3926 19.1545 32.3074 19.071C32.2222 18.9875 32.1068 18.9406 31.9863 18.9405H27.58V17.2482H31.9863C32.1068 17.2481 32.2222 17.2012 32.3074 17.1177C32.3926 17.0342 32.4404 16.921 32.4405 16.8029V15.1996C32.4404 15.0815 32.3926 14.9683 32.3074 14.8849C32.2222 14.8014 32.1068 14.7544 31.9863 14.7543H27.58V13.0621H31.9863Z" fill="black"/>
<path d="M22.8551 10.5683H21.2198C21.0994 10.5684 20.9839 10.6153 20.8987 10.6988C20.8135 10.7823 20.7656 10.8955 20.7655 11.0136V16.7857L16.4858 10.7869C16.3646 10.6167 16.1836 10.5683 15.9828 10.5683C15.9574 10.5641 15.9315 10.5683 15.9049 10.5683H14.2696C14.1492 10.5684 14.0337 10.6153 13.9486 10.6988C13.8634 10.7823 13.8155 10.8955 13.8154 11.0136V20.9891C13.8155 21.1072 13.8633 21.2205 13.9485 21.304C14.0337 21.3875 14.1492 21.4345 14.2696 21.4346H15.9049C16.0254 21.4345 16.1409 21.3876 16.2261 21.3041C16.3113 21.2205 16.3592 21.1073 16.3593 20.9891V14.9606L20.8212 21.215C20.8372 21.2375 20.855 21.2578 20.8735 21.277C20.9504 21.3656 21.0619 21.4258 21.1878 21.4346H21.2697H22.8551C22.9756 21.4345 23.0911 21.3875 23.1762 21.304C23.2614 21.2205 23.3093 21.1072 23.3093 20.9891V11.0136C23.3092 10.8955 23.2613 10.7823 23.1762 10.6988C23.091 10.6153 22.9755 10.5684 22.8551 10.5683Z" fill="black"/>
<path d="M66.7968 25.6001H37.8454C37.5443 25.6001 37.2555 25.4828 37.0425 25.2741C36.8296 25.0653 36.71 24.7822 36.71 24.4869V7.5131C36.71 7.21791 36.8297 6.93481 37.0426 6.72609C37.2555 6.51737 37.5443 6.40011 37.8454 6.40011H66.7968C67.098 6.40011 67.3867 6.51737 67.5997 6.72609C67.8126 6.93481 67.9323 7.21791 67.9323 7.5131V24.4869C67.9323 24.7822 67.8127 25.0653 67.5997 25.2741C67.3868 25.4828 67.098 25.6001 66.7968 25.6001Z" fill="#08BF5B"/>
<path d="M45.8958 13.8875C45.8958 13.2407 45.4301 12.7461 44.7962 12.7461H43.4379V15.0289H44.7962C45.4301 15.0289 45.8958 14.5344 45.8958 13.8875ZM47.9656 13.8875C47.9656 15.5743 46.5814 16.9312 44.7962 16.9312H43.4379V19.4226C43.4379 19.5875 43.3016 19.7212 43.1333 19.7212H41.673C41.5045 19.7212 41.3682 19.5875 41.3682 19.4226V11.1426C41.3682 10.9775 41.5045 10.8438 41.673 10.8438H44.7962C46.5814 10.8438 47.9656 12.2008 47.9656 13.8875Z" fill="white"/>
<path d="M53.7116 16.5509C53.7116 15.5998 53.0648 15.0037 52.1722 15.0037C51.2796 15.0037 50.6328 15.5998 50.6328 16.5509C50.6328 17.5019 51.2796 18.098 52.1722 18.098C53.0648 18.098 53.7116 17.5021 53.7116 16.5509ZM55.652 13.5376V19.5641C55.652 19.6511 55.5803 19.7214 55.4917 19.7214H53.872C53.7835 19.7214 53.7116 19.6511 53.7116 19.5641V19.1254C53.2847 19.6072 52.6507 19.8989 51.7842 19.8989C50.0894 19.8989 48.6924 18.4406 48.6924 16.5509C48.6924 14.6612 50.0894 13.2028 51.7842 13.2028C52.6507 13.2028 53.2847 13.4946 53.7116 13.9765V13.5376C53.7116 13.4507 53.7835 13.3804 53.872 13.3804H55.4917C55.5803 13.3804 55.652 13.4507 55.652 13.5376Z" fill="white"/>
<path d="M62.1107 13.5459L60.6215 17.2233L59.0818 13.543C59.0616 13.4949 59.0273 13.4539 58.9833 13.4249C58.9392 13.396 58.8874 13.3806 58.8344 13.3806H57.183C57.069 13.3806 56.9913 13.4939 57.0347 13.5975L59.6037 19.7372L58.6674 22.0492C58.6257 22.1525 58.7032 22.2646 58.8164 22.2646H60.4687C60.5222 22.2646 60.5745 22.2488 60.6188 22.2193C60.6631 22.1898 60.6973 22.148 60.7171 22.0992L64.1603 13.5956C64.202 13.4925 64.1245 13.3806 64.0113 13.3806H62.3592C62.3057 13.3806 62.2533 13.3963 62.209 13.4258C62.1647 13.4553 62.1305 13.4971 62.1107 13.5459Z" fill="white"/>
</svg>
