<svg width="33" height="32" viewBox="0 0 33 32" fill="none" xmlns="http://www.w3.org/2000/svg">
<g clip-path="url(#clip0_6896_4212)">
<path d="M9.93392 16C12.8673 16 15.2673 13.6 15.2673 10.6667C15.2673 7.73334 12.8673 5.33334 9.93392 5.33334C7.00059 5.33334 4.60059 7.73334 4.60059 10.6667C4.60059 13.6 7.00059 16 9.93392 16ZM15.2673 26.6667V19.6C13.8006 19.0667 11.9339 18.6667 9.93392 18.6667C4.73392 18.6667 0.600586 21.0667 0.600586 24V26.6667H15.2673ZM20.6006 5.33334C19.1339 5.33334 17.9339 6.53334 17.9339 8.00001V24C17.9339 25.4667 19.1339 26.6667 20.6006 26.6667H29.9339C31.4006 26.6667 32.6006 25.4667 32.6006 24V8.00001C32.6006 6.53334 31.4006 5.33334 29.9339 5.33334H20.6006Z" fill="#465A64"/>
</g>
<defs>
<clipPath id="clip0_6896_4212">
<rect width="32" height="32" fill="white" transform="translate(0.600586)"/>
</clipPath>
</defs>
</svg>
