<svg width="32" height="32" viewBox="0 0 32 32" fill="none" xmlns="http://www.w3.org/2000/svg">
<path fill-rule="evenodd" clip-rule="evenodd" d="M19.001 21.5H6.00098C4.06798 21.5 2.50098 19.933 2.50098 18V4.94315C2.50098 3.8756 3.55682 3.1988 4.48588 3.52135C4.6186 3.56743 4.74874 3.63391 4.87284 3.72255L5.04788 3.84758C5.91591 4.4676 7.08989 4.46486 7.96036 3.84309C9.1773 2.97385 10.8247 2.97385 12.0416 3.84309C12.9121 4.46486 14.0861 4.4676 14.9541 3.84758L15.1291 3.72255C16.1219 3.01341 17.501 3.72309 17.501 4.94315V12.5H21.001C21.4152 12.5 21.751 12.8357 21.751 13.25V18.75C21.751 20.2687 20.5198 21.5 19.001 21.5ZM17.751 14V18.75C17.751 19.4403 18.3106 20 19.001 20C19.6914 20 20.251 19.4403 20.251 18.75V14H17.751ZM13.501 9.74995C13.501 9.33574 13.1652 8.99995 12.751 8.99995H6.75098C6.33677 8.99995 6.00098 9.33574 6.00098 9.74995C6.00098 10.1642 6.33677 10.5 6.75098 10.5H12.751C13.1652 10.5 13.501 10.1642 13.501 9.74995ZM12.501 12.75C12.501 12.3357 12.1652 12 11.751 12H6.75098C6.33677 12 6.00098 12.3357 6.00098 12.75C6.00098 13.1642 6.33677 13.5 6.75098 13.5H11.751C12.1652 13.5 12.501 13.1642 12.501 12.75ZM12.751 15C13.1652 15 13.501 15.3357 13.501 15.75C13.501 16.1642 13.1652 16.5 12.751 16.5H6.75098C6.33677 16.5 6.00098 16.1642 6.00098 15.75C6.00098 15.3357 6.33677 15 6.75098 15H12.751Z" fill="#002554"/>
</svg>
