<svg width="32" height="32" viewBox="0 0 32 32" fill="none" xmlns="http://www.w3.org/2000/svg">
<path d="M10.666 10.6665C16.7707 10.6665 21.3321 8.2532 21.3321 6.09534C21.3321 3.9377 16.7706 1.52432 10.666 1.52432C4.56147 1.52432 0 3.9377 0 6.09534C0 8.2532 4.56137 10.6665 10.666 10.6665Z" fill="#002554"/>
<path d="M10.666 28.9516C11.557 28.9516 12.4146 28.8998 13.2304 28.8054C12.5428 27.9217 11.9741 26.9411 11.5481 25.8879C11.2554 25.8977 10.9617 25.9046 10.6659 25.9046C7.17774 25.9046 3.87436 25.2134 1.36457 23.9584C0.870395 23.7113 0.41564 23.4459 0 23.1648V24.3806C0 26.5382 4.56137 28.9516 10.666 28.9516Z" fill="#002554"/>
<path d="M10.718 22.856L10.6661 22.8563C4.56147 22.8563 0.000101599 20.4429 0 18.2852V17.0695C0.41564 17.3504 0.870497 17.6159 1.36477 17.863C3.87467 19.118 7.17794 19.8091 10.6661 19.8091C10.6817 19.8091 10.6972 19.8089 10.7128 19.8086C10.7283 19.8083 10.7438 19.808 10.7594 19.808C10.6968 20.3071 10.6643 20.8155 10.6643 21.3314C10.6643 21.8475 10.6969 22.3562 10.7594 22.8557L10.718 22.856Z" fill="#002554"/>
<path d="M10.6661 16.7613C10.9685 16.7613 11.2668 16.7552 11.5613 16.7436C12.0344 15.583 12.6808 14.5111 13.469 13.5604C12.5565 13.661 11.6186 13.7143 10.6661 13.7143C7.17794 13.7143 3.87467 13.0232 1.36477 11.7682C0.870497 11.521 0.41564 11.2556 0 10.9746V12.1903C0.000101599 14.3481 4.56147 16.7613 10.6661 16.7613Z" fill="#002554"/>
<path d="M13.8757 19.6092C14.1075 18.3985 14.5786 17.2719 15.2379 16.2806C16.6086 14.2203 18.7918 12.7452 21.3264 12.3165C21.8241 12.2324 22.335 12.1879 22.8561 12.1879C27.898 12.1879 32 16.2897 32 21.3318C32 26.3737 27.898 30.4756 22.8561 30.4756C20.4851 30.4756 18.3221 29.5684 16.6957 28.0829C15.9131 27.3681 15.255 26.5193 14.7576 25.5733C14.2835 24.6718 13.9557 23.6823 13.8056 22.6357C13.7445 22.2097 13.7122 21.7744 13.7122 21.3318C13.7122 20.743 13.7687 20.1672 13.8757 19.6092Z" fill="#002554"/>
</svg>
